# xmcd
#
# Track frame offsets: 
#        150
#        21764
#        43046
#        60829
#        76176
#        99532
#        115372
#        130370
#        145576
#        167003
#        191336
#        208842
#
# Disc length: 3086 seconds
#
# Revision: 0
# Processed by: cddbd v1.5.2PL0 Copyright (c) Steve Scherf et al.
# Submitted via: ExactAudioCopy v1.0b1
#
DISCID=9b0c0c0c
DTITLE=The Shawn Dore Band - Watch My Back
DYEAR=2014
DGENRE=Blues
TTITLE0=A Word from Karma
TTITLE1=If Only
TTITLE2=Watch My Back
TTITLE3=Ten Feet Tall (and bullet prone)
TTITLE4=Finally Free
TTITLE5=Life's Too Short
TTITLE6=Gonna Get You
TTITLE7=Monkey and a Clown
TTITLE8=My Six String
TTITLE9=Your Magicman
TTITLE10=Caught Between the Lines
TTITLE11=Dream Chaser (live in studio)
EXTD=
EXTT0=
EXTT1=
EXTT2=
EXTT3=
EXTT4=
EXTT5=
EXTT6=
EXTT7=
EXTT8=
EXTT9=
EXTT10=
EXTT11=
PLAYORDER=
